<svg width="17" height="16" viewBox="0 0 17 16" fill="none" xmlns="http://www.w3.org/2000/svg">
<path d="M15.926 7H9.92603V1C9.92603 0.734784 9.82067 0.48043 9.63313 0.292893C9.4456 0.105357 9.19124 0 8.92603 0C8.66081 0 8.40646 0.105357 8.21892 0.292893C8.03138 0.48043 7.92603 0.734784 7.92603 1V7H1.92603C1.66081 7 1.40646 7.10536 1.21892 7.29289C1.03138 7.48043 0.926025 7.73478 0.926025 8C0.926025 8.26522 1.03138 8.51957 1.21892 8.70711C1.40646 8.89464 1.66081 9 1.92603 9H7.92603V15C7.92603 15.2652 8.03138 15.5196 8.21892 15.7071C8.40646 15.8946 8.66081 16 8.92603 16C9.19124 16 9.4456 15.8946 9.63313 15.7071C9.82067 15.5196 9.92603 15.2652 9.92603 15V9H15.926C16.1912 9 16.4456 8.89464 16.6331 8.70711C16.8207 8.51957 16.926 8.26522 16.926 8C16.926 7.73478 16.8207 7.48043 16.6331 7.29289C16.4456 7.10536 16.1912 7 15.926 7Z" fill="#262626"/>
</svg>
