<svg width="24" height="24" viewBox="0 0 24 24" fill="none" xmlns="http://www.w3.org/2000/svg">
<path d="M21.71 20.29L18 16.61C19.4401 14.8144 20.1375 12.5353 19.9488 10.2413C19.7601 7.9473 18.6997 5.81278 16.9855 4.27664C15.2714 2.7405 13.0338 1.91951 10.7329 1.98247C8.43207 2.04543 6.24275 2.98756 4.61517 4.61514C2.98759 6.24272 2.04546 8.43203 1.9825 10.7329C1.91954 13.0338 2.74053 15.2714 4.27667 16.9855C5.81281 18.6997 7.94733 19.7601 10.2413 19.9488C12.5353 20.1375 14.8144 19.4401 16.61 18L20.29 21.68C20.383 21.7737 20.4936 21.8481 20.6154 21.8989C20.7373 21.9497 20.868 21.9758 21 21.9758C21.132 21.9758 21.2627 21.9497 21.3846 21.8989C21.5065 21.8481 21.6171 21.7737 21.71 21.68C21.8903 21.4935 21.991 21.2443 21.991 20.985C21.991 20.7257 21.8903 20.4765 21.71 20.29ZM11 18C9.61556 18 8.26218 17.5895 7.11103 16.8203C5.95989 16.0511 5.06268 14.9579 4.53287 13.6788C4.00306 12.3997 3.86443 10.9922 4.13453 9.63436C4.40463 8.2765 5.07131 7.02922 6.05028 6.05025C7.02925 5.07128 8.27653 4.4046 9.63439 4.1345C10.9923 3.8644 12.3997 4.00303 13.6788 4.53284C14.9579 5.06265 16.0511 5.95986 16.8203 7.111C17.5895 8.26215 18 9.61553 18 11C18 12.8565 17.2625 14.637 15.9498 15.9497C14.637 17.2625 12.8565 18 11 18Z" fill="black"/>
</svg>
