<svg width="21" height="20" viewBox="0 0 21 20" fill="none" xmlns="http://www.w3.org/2000/svg">
<path d="M19.4984 7.55L17.6084 6.92L18.4984 5.14C18.5886 4.95369 18.6188 4.74397 18.5848 4.53978C18.5507 4.33558 18.4542 4.14699 18.3084 4L16.1784 1.87C16.0306 1.72209 15.8402 1.62421 15.634 1.59013C15.4277 1.55605 15.2159 1.58748 15.0284 1.68L13.2484 2.57L12.6184 0.680003C12.5519 0.482996 12.4256 0.311629 12.2571 0.189751C12.0886 0.0678737 11.8863 0.00154767 11.6784 3.33354e-06H8.67841C8.46877 -0.000537828 8.26425 0.0648223 8.09378 0.186845C7.92331 0.308868 7.7955 0.481382 7.72841 0.680003L7.09841 2.57L5.31841 1.68C5.13209 1.58978 4.92237 1.55961 4.71818 1.59364C4.51399 1.62767 4.32539 1.72423 4.17841 1.87L2.04841 4C1.90049 4.14777 1.80262 4.33818 1.76853 4.54446C1.73445 4.75074 1.76588 4.96251 1.85841 5.15L2.74841 6.93L0.858409 7.56C0.661401 7.62654 0.490035 7.75283 0.368157 7.92131C0.24628 8.08979 0.179953 8.29207 0.178409 8.5V11.5C0.177868 11.7096 0.243228 11.9142 0.365251 12.0846C0.487274 12.2551 0.659788 12.3829 0.858409 12.45L2.74841 13.08L1.85841 14.86C1.76819 15.0463 1.73801 15.256 1.77204 15.4602C1.80608 15.6644 1.90264 15.853 2.04841 16L4.17841 18.13C4.32617 18.2779 4.51658 18.3758 4.72286 18.4099C4.92914 18.444 5.14092 18.4125 5.32841 18.32L7.10841 17.43L7.73841 19.32C7.8055 19.5186 7.93331 19.6911 8.10378 19.8132C8.27425 19.9352 8.47877 20.0005 8.68841 20H11.6884C11.8981 20.0005 12.1026 19.9352 12.273 19.8132C12.4435 19.6911 12.5713 19.5186 12.6384 19.32L13.2684 17.43L15.0484 18.32C15.2335 18.4079 15.4412 18.4369 15.6433 18.4029C15.8454 18.3689 16.0322 18.2737 16.1784 18.13L18.3084 16C18.4563 15.8522 18.5542 15.6618 18.5883 15.4555C18.6224 15.2493 18.5909 15.0375 18.4984 14.85L17.6084 13.07L19.4984 12.44C19.6954 12.3735 19.8668 12.2472 19.9887 12.0787C20.1105 11.9102 20.1769 11.7079 20.1784 11.5V8.5C20.179 8.29036 20.1136 8.08585 19.9916 7.91537C19.8695 7.7449 19.697 7.61709 19.4984 7.55ZM18.1784 10.78L16.9784 11.18C16.7025 11.2695 16.4493 11.418 16.2365 11.6151C16.0236 11.8122 15.8562 12.0533 15.7459 12.3216C15.6355 12.5899 15.5848 12.879 15.5974 13.1688C15.6099 13.4586 15.6853 13.7422 15.8184 14L16.3884 15.14L15.2884 16.24L14.1784 15.64C13.922 15.5122 13.6411 15.4411 13.3547 15.4313C13.0684 15.4215 12.7833 15.4734 12.5187 15.5834C12.2542 15.6934 12.0163 15.8589 11.8213 16.0688C11.6263 16.2787 11.4787 16.5281 11.3884 16.8L10.9884 18H9.39841L8.99841 16.8C8.9089 16.5241 8.76043 16.2709 8.56331 16.0581C8.36618 15.8452 8.12512 15.6778 7.85683 15.5675C7.58854 15.4571 7.29946 15.4064 7.00963 15.419C6.71981 15.4315 6.43617 15.5069 6.17841 15.64L5.03841 16.21L3.93841 15.11L4.53841 14C4.6715 13.7422 4.74693 13.4586 4.75945 13.1688C4.77198 12.879 4.72131 12.5899 4.61095 12.3216C4.50059 12.0533 4.33319 11.8122 4.12035 11.6151C3.90752 11.418 3.65435 11.2695 3.37841 11.18L2.17841 10.78V9.22L3.37841 8.82C3.65435 8.73049 3.90752 8.58203 4.12035 8.3849C4.33319 8.18778 4.50059 7.94671 4.61095 7.67842C4.72131 7.41014 4.77198 7.12105 4.75945 6.83123C4.74693 6.5414 4.6715 6.25777 4.53841 6L3.96841 4.89L5.06841 3.79L6.17841 4.36C6.43617 4.4931 6.71981 4.56852 7.00963 4.58105C7.29946 4.59358 7.58854 4.5429 7.85683 4.43254C8.12512 4.32218 8.36618 4.15478 8.56331 3.94195C8.76043 3.72912 8.9089 3.47595 8.99841 3.2L9.39841 2H10.9584L11.3584 3.2C11.4479 3.47595 11.5964 3.72912 11.7935 3.94195C11.9906 4.15478 12.2317 4.32218 12.5 4.43254C12.7683 4.5429 13.0574 4.59358 13.3472 4.58105C13.637 4.56852 13.9206 4.4931 14.1784 4.36L15.3184 3.79L16.4184 4.89L15.8184 6C15.6906 6.25645 15.6195 6.53735 15.6097 6.82369C15.5999 7.11003 15.6518 7.39513 15.7618 7.65969C15.8718 7.92424 16.0373 8.16207 16.2472 8.35708C16.4571 8.5521 16.7065 8.69973 16.9784 8.79L18.1784 9.19V10.78ZM10.1784 6C9.38728 6 8.61392 6.2346 7.95613 6.67413C7.29833 7.11365 6.78564 7.73836 6.48289 8.46927C6.18014 9.20017 6.10093 10.0044 6.25527 10.7804C6.40961 11.5563 6.79057 12.269 7.34998 12.8284C7.90939 13.3878 8.62212 13.7688 9.39805 13.9231C10.174 14.0775 10.9782 13.9983 11.7091 13.6955C12.44 13.3928 13.0648 12.8801 13.5043 12.2223C13.9438 11.5645 14.1784 10.7911 14.1784 10C14.1784 8.93914 13.757 7.92172 13.0068 7.17158C12.2567 6.42143 11.2393 6 10.1784 6ZM10.1784 12C9.78285 12 9.39617 11.8827 9.06727 11.6629C8.73837 11.4432 8.48202 11.1308 8.33065 10.7654C8.17927 10.3999 8.13967 9.99778 8.21684 9.60982C8.29401 9.22186 8.48449 8.86549 8.7642 8.58579C9.0439 8.30608 9.40027 8.1156 9.78823 8.03843C10.1762 7.96126 10.5783 8.00087 10.9438 8.15224C11.3092 8.30362 11.6216 8.55996 11.8413 8.88886C12.0611 9.21776 12.1784 9.60444 12.1784 10C12.1784 10.5304 11.9677 11.0391 11.5926 11.4142C11.2175 11.7893 10.7088 12 10.1784 12Z" fill="#262626"/>
</svg>
